<?xml version="1.0"?>
<svg xmlns:rdf="http://www.w3.org/1999/02/22-rdf-syntax-ns#" xmlns="http://www.w3.org/2000/svg" xmlns:cc="http://creativecommons.org/ns#" xmlns:xlink="http://www.w3.org/1999/xlink" xmlns:dc="http://purl.org/dc/elements/1.1/" id="svg13195" viewBox="0 0 110 110" version="1.1">
  <defs id="defs13197">
    <linearGradient id="linearGradient12130" y2="1460" gradientUnits="userSpaceOnUse" x2="-506.79" y1="1365.3" x1="-519.81">
      <stop id="stop11913-6" stop-color="red" offset="0"/>
      <stop id="stop11915-3" stop-color="#a00" offset="1"/>
    </linearGradient>
    <radialGradient id="radialGradient12132" gradientUnits="userSpaceOnUse" cy="1419.6" cx="-514.9" gradientTransform="matrix(1 0 0 .92466 0 106.37)" r="54.837">
      <stop id="stop11923-6" stop-color="#fff" offset="0"/>
      <stop id="stop11921-3" stop-color="#f2f2f2" offset="1"/>
    </radialGradient>
    <radialGradient id="radialGradient12134" gradientUnits="userSpaceOnUse" cy="845.64" cx="372.87" gradientTransform="matrix(1.9169 -.011731 .0032226 .52655 -344.85 416.4)" r="56.786">
      <stop id="stop6195" stop-color="#90a2ca" stop-opacity=".60504" offset="0"/>
      <stop id="stop6197" stop-color="#97cadf" offset="1"/>
    </radialGradient>
    <filter id="filter6251" width="1.0719" y="-.18099" x="-.035961" height="1.362" color-interpolation-filters="sRGB">
      <feGaussianBlur id="feGaussianBlur6253" stdDeviation="1.3944642"/>
    </filter>
    <filter id="filter12654" width="1.7321" y="-.16557" x="-.36603" height="1.3311" color-interpolation-filters="sRGB">
      <feGaussianBlur id="feGaussianBlur12656" stdDeviation="0.67251432"/>
    </filter>
    <filter id="filter12734" width="1.2822" y="-.30039" x="-.14109" height="1.6008" color-interpolation-filters="sRGB">
      <feGaussianBlur id="feGaussianBlur12736" stdDeviation="0.83348"/>
    </filter>
    <filter id="filter12776" width="1.1698" y="-.20462" x="-.084894" height="1.4092" color-interpolation-filters="sRGB">
      <feGaussianBlur id="feGaussianBlur12778" stdDeviation="0.71425825"/>
    </filter>
    <filter id="filter12929" width="1.2118" y="-.59897" x="-.10591" height="2.1979" color-interpolation-filters="sRGB">
      <feGaussianBlur id="feGaussianBlur12931" stdDeviation="2.198706"/>
    </filter>
  </defs>
  <g id="layer1" transform="translate(-179.29 -340.22)">
    <g id="frost" transform="translate(-224.43 -241.06)">
      <rect id="rect6134" opacity="0" style="color:black" height="110" width="110" y="581.28" x="403.72" stroke-width="6.8"/>
      <g id="g6234" transform="translate(4.919 -27.347)">
        <g id="g12814" transform="matrix(.14572 .037093 -.037093 .14572 465.11 419.43)">
          <path id="path12816" style="color:black" fill="#ececec" transform="matrix(3.7775 -.18465 .18465 3.7775 2137.3 -3943)" d="m-463.51 1458.5c-5.3654 8.227-104.53 2.8367-108.97-5.9233-4.4421-8.7601 49.808-91.944 59.616-91.411 9.8075 0.5331 54.722 89.107 49.356 97.334z"/>
          <path id="path12818" d="m-463.51 1458.5c-5.3654 8.227-104.53 2.8367-108.97-5.9233-4.4421-8.7601 49.808-91.944 59.616-91.411 9.8075 0.5331 54.722 89.107 49.356 97.334z" style="color:black" fill="url(#linearGradient12130)" transform="matrix(3.6304 -.17745 .17745 3.6304 2071.6 -3729.4)"/>
          <path id="path12820" style="color:black" fill="url(#radialGradient12132)" transform="matrix(2.659 -.12998 .12998 2.659 1637.4 -2319.3)" d="m-463.51 1458.5c-5.3654 8.227-104.53 2.8367-108.97-5.9233-4.4421-8.7601 49.808-91.944 59.616-91.411 9.8075 0.5331 54.722 89.107 49.356 97.334z"/>
          <text id="text12822" style="word-spacing:0px;letter-spacing:0px" line-height="125%" xml:space="preserve" font-size="268.69px" transform="matrix(.99920 .039895 -.039895 .99920 0 0)" y="1587.6368" x="452.03351" font-family="Jomolhari" fill="black">
            <tspan id="tspan12824" y="1587.6368" x="452.03351">!</tspan>
          </text>
        </g>
        <g id="g12933" transform="matrix(.95142 0 0 .95142 19.396 62.673)">
          <g id="g12780" transform="translate(72.91 -223.59)">
            <path id="path6191" d="m386.72 839.66c-1.9226 0.0161-3.8345 0.0806-5.75 0.1875-10.779 0.60182-21.392 2.9946-32 5-6.0394 1.1417-13.552-0.24151-18 4-2.7506 2.6227-4.5846 7.5455-3 11 1.1089 2.4175 3.0606 4.0965 5.4375 5.3438 0.0129 0.007 0.0191 0.0238 0.0312 0.0312l0.81 4.78 0.65625-2.375 0.40625 3.6562-0.40625 6.4375 1.9375-3.875 0.1875-2.3438-0.625-3.0312 0.9375-1.5312h0.0312c0.0487-0.0296 0.125-0.0937 0.125-0.0937 3.7668 1.2187 7.9416 1.9475 11.469 3 4.4821 1.3374 10.126-0.073 13.812 2.8438 0.36819 0.29133 0.59171 0.72486 0.75 1.1875l0.0625 1.25 0.4375 1.7812 0.0937 1.2188 0.25 1.2188 0.0312 1.6562 0.28125 2.5312 0.0937-2.0938 0.25 1.6562-0.4375 2.75v1.6875l0.28125 2.3438 0.0312-1.1562 0.53125 4.9062 0.0937-2.5938 0.34375-4.9062 0.46875-3.9375-0.1875-2.4688 0.34375-2.0938 0.28125-0.125v-0.28125c0.38088 0.10288 0.79423 0.18445 1.0938 0.15625 0.83816-0.0789 2.3125-1 2.3125-1 0.0127 0.21442 0.0464 0.43868 0.0625 0.65625l0.40625-0.53125-0.0625 1 0.4375 3.9375 0.375 4.9375 0.0625 2.5938 0.53125-4.9375 0.0625 1.1875 0.28125-2.375v-1.6875l-0.4375-2.75 0.25-1.6562 0.0937 2.0938 0.28125-2.5312 0.0312-1.6562 0.15625-0.8125 0.1875-0.21875 2-0.625c0.29122-0.3549 0.5771-0.69349 0.9375-0.96875 5.8961-4.5032 13.746-7.8526 21.125-7.0938l-0.15625 2.25 0.4375 3.9375 0.34375 4.9375 0.0937 2.5938 0.53125-4.9375 0.0625 1.1875 0.28125-2.375v-1.6875l-0.4375-2.75 0.25-1.6562 0.0937 2.0938 0.25-2.5312v-0.40625l0.9375 1.5v2.4688l0.53125 3.0938 0.5625-3.4375v4.1875l0.75-3.4062-0.125 8.0312-0.53125 3.9688 0.53125 3.875 0.4375 2.9062 0.3125-6.9688 1.1875-3.5625 0.75-2.4688 0.75-2.7812-0.53125-3-0.21875-2.375 0.21875-1.625 0.71875-2.0938 0.21875-0.0625c5.5545-1.9585 11.878-0.24871 17.75-1 1.4978-0.19164 3.4523-0.8945 5.0312-0.625l0.125 1.7188 1.0625 3.125 0.21875 2.125 0.625 2.125 0.0625 2.875 0.6875 4.4062 0.21875-3.6562 0.625 2.9062-1.0625 4.7812v2.9688l0.6875 4.0938 0.0937-2.0625 1.2812 8.5938 0.21875-4.5 0.875-8.5938 1.0625-6.875-0.4375-4.3125 0.875-3.6562 0.625-0.21875 0.21875-3.2188 1.6875-3.1562c0.85005-0.43626 1.6085-1.0288 2.2188-1.8438 1.8092-2.4162 0.9197-6.6707-1-9-3.5537-4.312-10.63-3.4552-16-5-6.2937-1.8105-12.525-4.0188-19-5-5.6905-0.86229-11.482-1.2359-17.25-1.1875z" fill="url(#radialGradient12134)"/>
            <path id="path6233" opacity=".74924" filter="url(#filter6251)" d="m329.82 856.05c-0.42324-1.8563 0.88687-3.8538 2.1213-5.3033 1.3366-1.5695 3.3246-2.6034 5.3033-3.182 3.9606-1.1582 8.275 0.11834 12.374-0.35355 7.049-0.81143 13.826-3.3085 20.86-4.2426 7.3748-0.97939 14.845-1.8187 22.274-1.4142 5.4944 0.29914 10.884 1.6728 16.263 2.8284 4.6391 0.99653 13.789 3.5355 13.789 3.5355s-12.716-1.1385-19.092-1.4142c-9.42-0.40738-18.887-1.1207-28.284-0.35355-9.424 0.76926-18.512 4.1216-27.931 4.9498-2.935 0.25805-6.7555-2.0833-8.8388 0-1.25 1.25 0.78091 3.7174 0 5.3033-0.85386 1.7341-2.6651 3.6189-4.5962 3.5355-1.9167-0.0827-3.8162-2.0186-4.2426-3.8891z" fill="#fff"/>
            <path id="path12543" filter="url(#filter12654)" d="m430.48 862.52c1.9824 5.2272-0.99503 4.9398 1.3438 6 1.4751 7.4708 0.4008 1.4574 2.5625-2.3438 0.63991-4.6071 1.6175-3.8956-3.9062-3.6562zm0.34375 6.0938c0.036 1.1255 0.652-0.4547 0 0z" fill="#fff"/>
            <path id="path12560" filter="url(#filter12734)" fill="#fff" d="m362.82 870.63 2.363 3.0074 2.363 1.0741 3.437-1.5037 2.7926-3.437 3.2222-1.7185-8.163 2.1482z"/>
            <path id="path12738" opacity=".72171" filter="url(#filter12776)" d="m398.91 863.97 2.363 2.5778 1.2889 3.2222 0.85926-4.2963 1.0741-3.2222 4.2963-0.85926h-9.237l-10.956 2.1482z" fill="#fff"/>
          </g>
          <path id="path12855" filter="url(#filter12929)" d="m418.93 635.86 7.291-2.4304 9.1138-2.1266 7.8986-0.30379 10.937-0.60759 14.582-0.30379-8.2024 1.8228-17.316 0.60759-5.1645 1.2152-9.7214 2.4304-5.1645 2.7341z" fill="#fff"/>
        </g>
      </g>
    </g>
  </g>
  <metadata>
    <rdf:RDF>
      <cc:Work>
        <dc:format>image/svg+xml</dc:format>
        <dc:type rdf:resource="http://purl.org/dc/dcmitype/StillImage"/>
        <cc:license rdf:resource="http://creativecommons.org/licenses/publicdomain/"/>
        <dc:publisher>
          <cc:Agent rdf:about="http://openclipart.org/">
            <dc:title>Openclipart</dc:title>
          </cc:Agent>
        </dc:publisher>
      </cc:Work>
      <cc:License rdf:about="http://creativecommons.org/licenses/publicdomain/">
        <cc:permits rdf:resource="http://creativecommons.org/ns#Reproduction"/>
        <cc:permits rdf:resource="http://creativecommons.org/ns#Distribution"/>
        <cc:permits rdf:resource="http://creativecommons.org/ns#DerivativeWorks"/>
      </cc:License>
    </rdf:RDF>
  </metadata>
</svg>
